<?xml version="1.0" standalone="no"?>
<!DOCTYPE svg PUBLIC "-//W3C//DTD SVG 20010904//EN"
 "http://www.w3.org/TR/2001/REC-SVG-20010904/DTD/svg10.dtd">
<svg version="1.0" xmlns="http://www.w3.org/2000/svg"
 width="512.000000pt" height="512.000000pt" viewBox="0 0 512.000000 512.000000"
 preserveAspectRatio="xMidYMid meet">
<metadata>
Created by potrace 1.16, written by Peter Selinger 2001-2019
</metadata>
<g transform="translate(0.000000,512.000000) scale(0.100000,-0.100000)"
fill="#000000" stroke="none">
<path d="M2628 4633 c28 -2 76 -2 105 0 28 2 5 3 -53 3 -58 0 -81 -1 -52 -3z"/>
<path d="M2498 4623 c12 -2 32 -2 45 0 12 2 2 4 -23 4 -25 0 -35 -2 -22 -4z"/>
<path d="M2813 4623 c15 -2 37 -2 50 0 12 2 0 4 -28 4 -27 0 -38 -2 -22 -4z"/>
<path d="M2433 4613 c9 -2 23 -2 30 0 6 3 -1 5 -18 5 -16 0 -22 -2 -12 -5z"/>
<path d="M2903 4613 c9 -2 25 -2 35 0 9 3 1 5 -18 5 -19 0 -27 -2 -17 -5z"/>
<path d="M2378 4603 c6 -2 18 -2 25 0 6 3 1 5 -13 5 -14 0 -19 -2 -12 -5z"/>
<path d="M2968 4603 c6 -2 18 -2 25 0 6 3 1 5 -13 5 -14 0 -19 -2 -12 -5z"/>
<path d="M2265 4582 c-33 -8 -55 -17 -50 -18 6 -2 42 5 80 15 39 11 61 19 50
19 -11 0 -47 -7 -80 -16z"/>
<path d="M3018 4593 c6 -2 18 -2 25 0 6 3 1 5 -13 5 -14 0 -19 -2 -12 -5z"/>
<path d="M3068 4583 c7 -3 16 -2 19 1 4 3 -2 6 -13 5 -11 0 -14 -3 -6 -6z"/>
<path d="M3104 4579 c-4 -8 1 -9 16 -4 16 5 20 4 15 -5 -5 -9 -1 -10 15 -5 13
4 20 3 17 -2 -4 -5 7 -10 22 -10 37 0 259 -108 368 -179 283 -184 516 -450
678 -773 135 -270 223 -565 245 -826 l9 -100 -4 125 c-5 191 -54 396 -152 635
-169 416 -472 783 -809 980 -36 21 -62 40 -59 43 8 8 219 -117 307 -183 513
-386 816 -1072 769 -1745 -6 -82 -22 -208 -36 -281 -27 -136 -27 -181 -1 -88
85 302 81 740 -11 1059 -58 205 -159 425 -272 598 -238 362 -620 650 -997 751
-91 24 -110 26 -120 10z"/>
<path d="M2160 4550 c-18 -12 -2 -12 25 0 13 6 15 9 5 9 -8 0 -22 -4 -30 -9z"/>
<path d="M2012 4495 c-85 -35 -249 -119 -267 -137 -5 -6 37 15 95 45 58 31
141 70 185 87 44 18 82 34 84 36 11 11 -21 1 -97 -31z"/>
<path d="M1760 4490 c-8 -5 -10 -10 -5 -10 6 0 17 5 25 10 8 5 11 10 5 10 -5
0 -17 -5 -25 -10z"/>
<path d="M2466 4475 c-370 -60 -708 -253 -1032 -586 -215 -222 -336 -431 -407
-705 -34 -132 -49 -218 -48 -279 0 -27 -3 -45 -7 -38 -4 6 -7 -82 -6 -195 1
-220 16 -330 67 -481 l22 -65 -49 -26 c-88 -45 -155 -177 -143 -281 7 -60 117
-335 156 -392 16 -23 46 -60 66 -82 34 -38 34 -36 -9 26 -47 68 -102 177 -93
185 2 2 16 -14 32 -37 40 -61 103 -127 155 -162 25 -16 47 -32 49 -33 2 -2 -4
-15 -13 -29 -12 -19 -14 -30 -6 -44 6 -13 6 -29 -1 -49 -8 -23 -7 -37 4 -59 8
-15 12 -33 10 -40 -11 -31 304 -252 492 -343 294 -144 539 -197 860 -187 284
9 528 70 798 200 329 158 634 414 865 727 50 69 107 141 126 160 19 19 39 45
45 57 29 58 -4 140 -88 212 l-57 50 29 88 c27 83 77 283 77 311 0 6 -4 12 -8
12 -5 0 -17 -39 -27 -87 -16 -78 -81 -302 -91 -312 -2 -2 -16 4 -31 14 -15 10
18 -27 75 -81 l102 -99 -1 -55 -2 -55 -6 48 c-8 53 -7 53 -113 139 -42 35
-154 131 -250 213 -184 160 -331 279 -440 359 -37 28 -66 52 -63 54 12 12 63
-16 166 -91 63 -45 143 -102 179 -126 l65 -42 -45 39 c-25 22 -112 92 -195
155 -134 104 -154 116 -191 117 -49 0 -79 -27 -96 -86 -5 -21 -20 -52 -31 -69
l-21 -30 28 25 c23 21 29 22 36 10 7 -11 5 -18 -7 -25 -9 -5 -49 -37 -90 -70
-174 -140 -212 -167 -294 -209 -47 -25 -125 -57 -175 -72 -81 -25 -104 -28
-254 -28 -146 -1 -174 2 -240 22 -260 82 -457 257 -582 518 -52 108 -58 159
-28 250 118 361 450 627 815 654 l110 9 -115 -4 c-166 -5 -297 -47 -442 -141
-193 -124 -354 -349 -396 -552 l-16 -80 32 -97 c18 -54 52 -133 77 -177 25
-44 45 -82 45 -84 0 -2 -12 1 -27 7 -57 22 -156 40 -165 31 -6 -6 5 -12 29
-17 67 -12 156 -63 242 -141 146 -129 270 -201 431 -247 61 -17 102 -21 220
-22 167 0 250 18 395 84 73 34 205 116 205 128 0 2 -24 -8 -52 -23 -60 -30
-57 -25 27 38 33 25 107 84 164 132 l104 87 22 -33 c39 -58 714 -691 768 -720
17 -10 42 -18 54 -18 12 0 24 -3 27 -8 7 -11 -137 -202 -236 -312 -260 -291
-587 -506 -948 -624 -232 -76 -328 -91 -595 -91 -202 0 -243 3 -340 23 -303
64 -613 214 -867 420 -38 30 -68 57 -68 61 0 13 46 51 61 51 20 0 39 20 39 41
0 9 -16 26 -35 38 -34 20 -41 34 -29 64 4 12 12 13 42 5 65 -18 199 -5 265 24
75 35 159 115 187 179 49 116 34 264 -40 377 -45 71 -95 113 -178 153 -151 73
-299 60 -462 -41 -31 -20 -30 -17 13 23 79 76 209 109 347 89 73 -11 86 -8 44
9 -44 18 -150 23 -223 11 -38 -7 -92 -8 -126 -4 l-60 7 -23 69 c-54 161 -66
247 -66 476 -1 238 14 357 63 529 77 266 189 455 396 669 296 307 584 484 925
570 95 24 123 26 290 26 153 0 203 -4 287 -22 388 -84 742 -319 977 -647 65
-90 162 -282 200 -397 69 -204 102 -447 92 -678 -7 -181 -28 -297 -85 -470
-37 -114 -44 -157 -20 -120 17 28 78 226 99 325 31 148 38 401 15 575 -67 526
-303 920 -713 1193 -180 120 -354 194 -554 238 -125 27 -370 34 -492 14z
m-1058 -2475 c76 -14 139 -48 197 -104 28 -28 33 -34 11 -14 -111 101 -294
131 -416 68 -46 -24 -104 -83 -126 -128 -18 -38 -24 -136 -12 -187 l7 -30 -14
30 c-19 40 -19 147 0 192 35 83 107 143 204 169 57 16 85 17 149 4z m94 -62
c108 -50 188 -163 188 -267 0 -104 -79 -212 -179 -246 -71 -23 -179 -17 -240
14 -62 32 -133 101 -161 158 -70 140 -8 305 134 357 64 24 187 16 258 -16z
m183 -425 c-75 -113 -226 -167 -359 -129 -73 22 -70 29 4 10 69 -19 147 -11
216 20 58 27 130 87 139 118 4 11 9 17 12 14 3 -3 -2 -18 -12 -33z m-535 -18
c13 -14 21 -25 18 -25 -2 0 -15 11 -28 25 -13 14 -21 25 -18 25 2 0 15 -11 28
-25z"/>
<path d="M1171 1789 c-28 -82 -1 -171 70 -232 44 -38 121 -68 168 -66 17 1 11
4 -18 10 -144 28 -222 128 -208 264 3 30 4 55 2 55 -2 0 -8 -14 -14 -31z"/>
<path d="M1668 4444 c-38 -20 -36 -28 2 -9 17 9 30 18 30 20 0 7 -1 6 -32 -11z"/>
<path d="M1513 4345 c-122 -83 -240 -183 -348 -296 -52 -54 -42 -47 35 27 136
129 211 191 324 266 91 61 114 78 105 78 -3 0 -55 -34 -116 -75z"/>
<path d="M2455 4200 c-313 -41 -609 -200 -822 -441 -109 -124 -244 -339 -267
-429 -4 -14 6 2 22 35 56 117 290 367 477 508 157 118 304 178 514 208 116 16
296 7 386 -21 70 -22 161 -68 152 -77 -3 -2 -41 1 -84 8 -197 32 -452 9 -656
-60 -315 -107 -604 -348 -698 -582 -69 -174 -104 -372 -103 -589 1 -202 34
-349 119 -514 69 -135 95 -172 144 -203 25 -15 81 -62 126 -103 189 -175 412
-294 625 -334 94 -18 279 -21 366 -5 187 33 327 106 554 290 90 73 260 239
260 254 0 4 -44 -34 -97 -85 -435 -407 -976 -502 -1464 -254 -139 70 -322 217
-397 318 -59 82 -136 243 -161 339 -44 169 -48 350 -15 584 48 336 243 587
589 760 296 148 708 184 1017 87 318 -99 645 -395 767 -692 18 -45 35 -81 37
-79 5 5 -57 160 -86 218 -12 22 -20 43 -18 45 2 1 22 -3 43 -11 22 -8 50 -14
62 -15 31 0 73 21 73 36 0 24 -157 209 -263 310 -134 128 -263 220 -412 294
-229 113 -397 153 -640 154 -170 0 -237 -11 -381 -59 -156 -52 -327 -155 -508
-306 -114 -94 -101 -66 26 57 196 191 475 314 776 344 321 32 633 -53 947
-258 73 -47 138 -103 240 -205 146 -147 149 -148 50 -29 -196 239 -566 444
-891 496 -106 17 -303 19 -409 6z"/>
<path d="M1339 4073 l-34 -38 38 34 c34 33 42 41 34 41 -2 0 -19 -17 -38 -37z"/>
<path d="M1255 3998 l-40 -43 43 40 c39 36 47 45 39 45 -2 0 -21 -19 -42 -42z"/>
<path d="M1064 3938 l-29 -33 33 29 c17 17 32 31 32 33 0 8 -8 1 -36 -29z"/>
<path d="M1163 3896 c-51 -56 -146 -178 -178 -231 -30 -48 -12 -27 70 84 43
58 98 126 123 153 24 26 42 48 39 48 -3 0 -27 -24 -54 -54z"/>
<path d="M2580 3773 c-242 -32 -504 -129 -689 -256 -200 -137 -384 -389 -415
-567 l-6 -35 14 35 c51 133 126 242 245 360 159 157 349 273 566 346 146 49
256 67 410 67 188 0 309 -28 468 -111 231 -121 391 -313 456 -550 32 -118 54
-321 49 -456 -6 -137 6 -134 21 6 22 196 -19 469 -94 627 -150 316 -489 526
-865 536 -69 2 -141 1 -160 -2z"/>
<path d="M2880 3634 c432 -147 649 -475 661 -999 l1 -60 10 65 c19 128 -23
372 -91 522 -87 195 -227 336 -423 427 -76 36 -186 71 -219 71 -8 0 20 -12 61
-26z"/>
<path d="M950 3610 c-6 -11 -8 -20 -6 -20 3 0 10 9 16 20 6 11 8 20 6 20 -3 0
-10 -9 -16 -20z"/>
<path d="M920 3560 c-6 -11 -8 -20 -6 -20 3 0 10 9 16 20 6 11 8 20 6 20 -3 0
-10 -9 -16 -20z"/>
<path d="M3840 3576 c0 -2 8 -10 18 -17 15 -13 16 -12 3 4 -13 16 -21 21 -21
13z"/>
<path d="M2481 3439 c-110 -19 -178 -70 -201 -149 l-9 -33 22 21 c27 25 69 42
105 42 60 0 122 -65 122 -127 0 -62 -66 -123 -133 -123 -38 0 -90 41 -113 89
l-21 43 -37 -44 c-80 -92 -134 -256 -121 -363 28 -221 153 -378 352 -442 179
-57 377 -1 516 146 214 227 211 559 -7 777 -39 39 -93 83 -121 97 -86 45 -37
29 63 -20 114 -56 269 -176 331 -257 25 -32 66 -101 93 -154 38 -78 47 -91 48
-67 l0 30 25 -38 c14 -20 28 -37 30 -37 6 0 -73 137 -118 205 -52 77 -195 219
-275 272 -146 97 -401 158 -551 132z m-4 -454 c12 -8 27 -31 33 -50 23 -68
-47 -146 -115 -129 -38 9 -75 59 -75 101 0 50 45 93 97 93 21 0 48 -7 60 -15z
m526 -81 c29 -10 49 -23 53 -36 15 -48 -25 -190 -74 -261 -65 -94 -203 -190
-285 -199 -26 -3 -31 2 -47 43 l-19 46 42 12 c54 16 139 73 172 117 42 55 74
134 87 217 6 42 14 77 18 77 4 0 27 -7 53 -16z"/>
<path d="M916 3395 c-9 -26 -7 -32 5 -12 6 10 9 21 6 23 -2 3 -7 -2 -11 -11z"/>
<path d="M1397 3273 c-14 -32 -28 -74 -31 -93 -4 -20 6 -3 22 40 16 41 32 83
37 93 4 9 5 17 2 17 -2 0 -16 -26 -30 -57z"/>
<path d="M1331 3223 c-49 -185 -64 -277 -68 -443 -7 -228 19 -368 102 -554 37
-84 41 -64 4 23 -58 138 -80 249 -88 436 -7 185 0 261 44 457 13 62 27 123 31
136 3 12 4 22 1 22 -3 0 -14 -35 -26 -77z"/>
<path d="M3690 3277 c0 -5 13 -61 29 -125 44 -173 59 -254 70 -378 8 -92 35
-227 59 -304 11 -35 34 95 39 220 7 176 -16 293 -81 425 -39 79 -114 184 -116
162z"/>
<path d="M920 3178 c0 -3 -9 -41 -20 -84 -24 -99 -50 -313 -50 -420 0 -102 16
-266 36 -363 22 -105 57 -214 72 -219 8 -2 7 8 -4 40 -92 261 -108 619 -43
942 11 54 17 101 14 104 -3 3 -5 3 -5 0z"/>
<path d="M831 3154 c0 -11 3 -14 6 -6 3 7 2 16 -1 19 -3 4 -6 -2 -5 -13z"/>
<path d="M811 3084 c0 -11 3 -14 6 -6 3 7 2 16 -1 19 -3 4 -6 -2 -5 -13z"/>
<path d="M801 3044 c0 -11 3 -14 6 -6 3 7 2 16 -1 19 -3 4 -6 -2 -5 -13z"/>
<path d="M791 2994 c0 -11 3 -14 6 -6 3 7 2 16 -1 19 -3 4 -6 -2 -5 -13z"/>
<path d="M3971 2904 c0 -11 3 -14 6 -6 3 7 2 16 -1 19 -3 4 -6 -2 -5 -13z"/>
<path d="M3984 2710 c0 -98 -6 -203 -13 -239 -7 -34 -10 -65 -8 -68 21 -20 45
331 30 427 -7 43 -9 16 -9 -120z"/>
<path d="M666 2799 c-3 -34 -5 -128 -4 -208 l1 -146 8 205 c4 113 6 206 4 208
-1 1 -5 -25 -9 -59z"/>
<path d="M953 2730 c0 -41 2 -58 4 -37 2 20 2 54 0 75 -2 20 -4 3 -4 -38z"/>
<path d="M595 2703 c-23 -268 39 -644 145 -896 51 -119 53 -100 4 38 -100 285
-137 487 -138 758 -1 103 -2 187 -3 187 0 0 -4 -39 -8 -87z"/>
<path d="M3951 2374 c0 -11 3 -14 6 -6 3 7 2 16 -1 19 -3 4 -6 -2 -5 -13z"/>
<path d="M4411 2164 c0 -11 3 -14 6 -6 3 7 2 16 -1 19 -3 4 -6 -2 -5 -13z"/>
<path d="M4396 2114 c-4 -14 -5 -28 -3 -31 3 -2 8 8 11 23 4 14 5 28 3 31 -3
2 -8 -8 -11 -23z"/>
<path d="M551 2060 c0 -8 4 -24 9 -35 5 -13 9 -14 9 -5 0 8 -4 24 -9 35 -5 13
-9 14 -9 5z"/>
<path d="M3589 1989 c-65 -35 -258 -223 -199 -194 116 58 320 224 275 224 -11
0 -45 -13 -76 -30z"/>
<path d="M576 1970 c12 -62 74 -231 120 -321 69 -138 240 -379 315 -444 12
-11 -7 16 -43 60 -160 195 -285 414 -359 627 -22 62 -36 97 -33 78z"/>
<path d="M3574 1849 c-18 -29 -223 -180 -301 -221 -421 -222 -869 -233 -1308
-33 -41 19 -75 32 -75 30 0 -3 35 -23 78 -44 164 -82 391 -145 575 -158 65 -4
84 -9 72 -16 -32 -17 -281 -2 -365 23 -78 23 -243 98 -319 146 -24 15 -41 22
-37 16 10 -17 177 -109 257 -142 311 -129 706 -112 1014 42 107 53 183 109
280 204 76 75 153 164 141 164 -2 0 -8 -5 -12 -11z"/>
<path d="M4019 1533 c-205 -266 -436 -458 -716 -597 -344 -170 -745 -216
-1159 -131 -127 26 -295 80 -377 122 -27 13 -51 22 -53 20 -7 -7 168 -84 253
-111 301 -94 654 -112 963 -50 307 62 628 238 884 484 120 115 309 351 294
366 -3 3 -43 -44 -89 -103z"/>
<path d="M3789 1424 c-24 -25 -86 -81 -137 -124 -244 -205 -487 -327 -768
-386 -114 -24 -152 -28 -324 -28 -166 -1 -211 3 -305 22 -146 31 -262 71 -384
132 -56 27 -101 48 -101 45 0 -12 213 -110 306 -140 171 -56 297 -77 479 -77
172 -1 264 10 418 48 222 56 453 174 647 332 85 69 226 209 219 216 -3 3 -25
-15 -50 -40z"/>
<path d="M1775 1306 c55 -50 282 -161 380 -186 384 -99 801 -48 1128 139 111
64 133 89 32 36 -231 -120 -398 -171 -645 -196 -131 -13 -260 -6 -400 21 -162
31 -283 79 -480 190 l-55 32 40 -36z"/>
<path d="M4010 1173 l-65 -68 68 65 c37 35 67 66 67 67 0 8 -10 -2 -70 -64z"/>
<path d="M1085 1170 c-17 -19 -19 -19 -39 -3 -20 17 -20 17 -6 -1 14 -17 7
-26 -95 -120 -243 -224 -235 -215 -242 -277 -5 -52 -4 -57 27 -87 17 -18 35
-32 40 -32 4 0 -7 15 -26 34 -22 22 -34 44 -34 61 0 15 4 24 10 20 6 -3 10
-13 10 -20 0 -8 11 -22 25 -31 32 -21 36 -19 195 131 215 202 208 194 186 210
-16 12 -32 1 -174 -131 -148 -137 -183 -159 -190 -123 -2 13 155 169 326 321
30 26 51 52 47 58 -10 16 -41 11 -60 -10z"/>
<path d="M3889 1063 l-34 -38 38 34 c20 19 37 36 37 38 0 8 -8 0 -41 -34z"/>
<path d="M3824 1008 l-19 -23 23 19 c21 18 27 26 19 26 -2 0 -12 -10 -23 -22z"/>
<path d="M1620 996 c0 -3 14 -12 30 -21 17 -9 30 -13 30 -11 0 3 -13 12 -30
21 -16 9 -30 13 -30 11z"/>
<path d="M3779 973 c-13 -16 -12 -17 4 -4 9 7 17 15 17 17 0 8 -8 3 -21 -13z"/>
<path d="M3739 943 c-13 -16 -12 -17 4 -4 16 13 21 21 13 21 -2 0 -10 -8 -17
-17z"/>
<path d="M3690 909 c-22 -18 -22 -19 -3 -10 12 6 25 16 28 21 9 15 3 12 -25
-11z"/>
<path d="M3630 869 c-22 -18 -22 -19 -3 -10 12 6 25 16 28 21 9 15 3 12 -25
-11z"/>
<path d="M1445 855 c43 -36 320 -185 342 -185 5 0 -56 34 -134 74 -78 41 -155
83 -170 93 -39 27 -62 38 -38 18z"/>
<path d="M3488 789 c-21 -11 -38 -22 -38 -24 0 -3 18 4 40 15 22 11 40 23 40
25 0 7 0 7 -42 -16z"/>
<path d="M3375 730 c-3 -6 1 -7 9 -4 18 7 21 14 7 14 -6 0 -13 -4 -16 -10z"/>
<path d="M3320 705 c-14 -8 -20 -14 -15 -14 6 0 21 6 35 14 14 8 21 14 15 14
-5 0 -21 -6 -35 -14z"/>
<path d="M3240 670 c-8 -5 -10 -10 -5 -10 6 0 17 5 25 10 8 5 11 10 5 10 -5 0
-17 -5 -25 -10z"/>
<path d="M1810 660 c8 -5 20 -10 25 -10 6 0 3 5 -5 10 -8 5 -19 10 -25 10 -5
0 -3 -5 5 -10z"/>
<path d="M1860 640 c8 -5 20 -10 25 -10 6 0 3 5 -5 10 -8 5 -19 10 -25 10 -5
0 -3 -5 5 -10z"/>
<path d="M3088 613 c7 -3 16 -2 19 1 4 3 -2 6 -13 5 -11 0 -14 -3 -6 -6z"/>
<path d="M3018 593 c7 -3 16 -2 19 1 4 3 -2 6 -13 5 -11 0 -14 -3 -6 -6z"/>
<path d="M2068 573 c7 -3 16 -2 19 1 4 3 -2 6 -13 5 -11 0 -14 -3 -6 -6z"/>
<path d="M2948 573 c7 -3 16 -2 19 1 4 3 -2 6 -13 5 -11 0 -14 -3 -6 -6z"/>
<path d="M2108 563 c6 -2 18 -2 25 0 6 3 1 5 -13 5 -14 0 -19 -2 -12 -5z"/>
<path d="M2898 563 c7 -3 16 -2 19 1 4 3 -2 6 -13 5 -11 0 -14 -3 -6 -6z"/>
<path d="M2158 553 c6 -2 18 -2 25 0 6 3 1 5 -13 5 -14 0 -19 -2 -12 -5z"/>
<path d="M2848 553 c6 -2 18 -2 25 0 6 3 1 5 -13 5 -14 0 -19 -2 -12 -5z"/>
<path d="M2218 543 c6 -2 18 -2 25 0 6 3 1 5 -13 5 -14 0 -19 -2 -12 -5z"/>
<path d="M2783 543 c9 -2 23 -2 30 0 6 3 -1 5 -18 5 -16 0 -22 -2 -12 -5z"/>
<path d="M2288 533 c12 -2 30 -2 40 0 9 3 -1 5 -23 4 -22 0 -30 -2 -17 -4z"/>
<path d="M2708 533 c12 -2 30 -2 40 0 9 3 -1 5 -23 4 -22 0 -30 -2 -17 -4z"/>
<path d="M2448 523 c39 -2 105 -2 145 0 39 1 7 3 -73 3 -80 0 -112 -2 -72 -3z"/>
</g>
</svg>